<?xml version="1.0" encoding="utf-8"?>
<!-- Generator: Adobe Illustrator 19.0.0, SVG Export Plug-In . SVG Version: 6.00 Build 0)  -->
<svg version="1.1" id="Layer_1" xmlns="http://www.w3.org/2000/svg" xmlns:xlink="http://www.w3.org/1999/xlink" x="0px" y="0px"
	 viewBox="0 0 96 96" style="enable-background:new 0 0 96 96;" xml:space="preserve">
<style type="text/css">
	.st0{fill:#333333;}
</style>
<g id="XMLID_2_">
	<path id="XMLID_4_" class="st0" d="M65.6,18c-2.5-0.2-5.3,0.8-7.5,3C46.9,32.3,35.6,43.6,24.3,54.9c-2.9,2.9-3.9,6.5-3.4,9.8
		c0.5,3.3,2.3,6.3,4.7,8.7c2.4,2.3,5.5,4.1,8.9,4.5c3.3,0.4,6.9-0.5,9.6-3.3l31-31l-2.8-2.8l-31,31c-1.9,1.9-4,2.4-6.3,2.1
		c-2.3-0.3-4.7-1.6-6.6-3.4c-1.9-1.8-3.2-4.1-3.5-6.4c-0.3-2.2,0.2-4.4,2.3-6.5C38.4,46.4,49.7,35.1,61,23.8c1.5-1.5,3-1.9,4.4-1.8
		c1.4,0.1,2.9,0.8,4,1.9c1.1,1.1,1.8,2.6,1.9,4c0.1,1.4-0.4,2.9-1.9,4.4L42.2,59.6c-0.5,0.5-0.9,0.6-1.4,0.6c-0.5,0-1-0.3-1.5-0.7
		c-0.4-0.4-0.6-0.9-0.7-1.3c0-0.4,0-0.8,0.7-1.5L61,35.1l-2.8-2.8L36.5,53.9c-1.3,1.3-1.9,3-1.8,4.6c0.1,1.6,0.9,2.9,2,3.9
		c1,1,2.4,1.7,3.9,1.7c1.5,0.1,3.2-0.5,4.4-1.7l27.3-27.3c2.2-2.2,3.2-4.9,3-7.5c-0.2-2.5-1.3-4.8-3-6.6
		C70.5,19.4,68.2,18.2,65.6,18z"/>
</g>
</svg>
